<!DOCTYPE svg PUBLIC "-//W3C//DTD SVG 20010904//EN" "http://www.w3.org/TR/2001/REC-SVG-20010904/DTD/svg10.dtd">
<svg version="1.0" xmlns="http://www.w3.org/2000/svg" width="128px" height="128px" viewBox="0 0 1280 1280" preserveAspectRatio="xMidYMid meet">
<g id="layer101" fill="#2c393f" stroke="none">
 <path d="M100 1274 c0 -3 25 -32 57 -65 53 -56 55 -59 30 -59 -24 0 -27 -4 -27 -37 l0 -36 -69 66 c-38 37 -72 67 -75 67 -3 0 -6 -11 -6 -25 0 -18 22 -49 75 -104 l75 -78 0 -63 0 -63 -69 66 c-38 37 -72 67 -75 67 -3 0 -6 -11 -6 -25 0 -18 22 -49 75 -104 l75 -78 0 -63 0 -63 -69 66 c-38 37 -72 67 -75 67 -3 0 -6 -11 -6 -25 0 -18 22 -49 75 -104 67 -70 75 -82 75 -117 0 -22 4 -54 10 -73 9 -32 5 -30 -69 43 -43 42 -81 76 -85 76 -3 0 -6 -12 -6 -27 0 -21 49 -76 253 -280 138 -140 264 -264 280 -275 15 -10 37 -18 50 -16 20 3 15 10 -43 72 -36 38 -57 66 -47 63 10 -4 44 -10 75 -14 52 -5 63 -11 120 -65 41 -38 71 -58 87 -58 14 0 25 3 25 6 0 3 -23 30 -51 60 -29 30 -50 54 -48 55 2 0 24 6 49 13 l45 12 77 -73 c54 -51 85 -73 103 -73 14 0 25 3 25 6 0 4 -34 41 -75 84 l-76 77 38 25 38 26 112 -109 c83 -82 118 -109 137 -109 14 0 26 3 26 7 0 3 -52 59 -116 124 l-116 117 28 36 29 35 116 -114 c64 -63 119 -115 122 -115 4 0 7 12 7 26 0 19 -27 54 -109 137 l-109 112 22 43 21 42 70 -71 c88 -89 105 -99 105 -64 0 18 -23 49 -80 109 l-80 83 0 63 0 63 74 -71 c41 -40 77 -72 80 -72 3 0 6 11 6 25 0 18 -23 50 -80 109 l-80 83 0 63 0 63 74 -71 c41 -40 77 -72 80 -72 3 0 6 11 6 25 0 18 -23 50 -80 109 l-80 83 0 63 0 63 74 -71 c41 -40 77 -72 80 -72 3 0 6 11 6 25 0 18 -23 50 -80 109 -44 46 -80 91 -80 100 0 9 -7 16 -16 16 -9 0 -48 29 -85 65 -47 44 -77 65 -94 65 -14 0 -25 -3 -25 -6 0 -3 25 -32 57 -65 l56 -59 -63 0 -63 0 -68 65 c-47 44 -77 65 -94 65 -14 0 -25 -3 -25 -6 0 -3 25 -32 57 -65 l56 -59 -63 0 -63 0 -68 65 c-47 44 -77 65 -94 65 -14 0 -25 -3 -25 -6 0 -3 25 -32 57 -65 l56 -59 -63 0 -63 0 -68 65 c-47 44 -77 65 -94 65 -14 0 -25 -3 -25 -6 0 -3 25 -32 57 -65 l56 -59 -63 0 -63 0 -68 65 c-47 44 -77 65 -94 65 -14 0 -25 -3 -25 -6z"/>
 <path d="M1109 1263 c10 -20 156 -163 165 -163 3 0 6 12 6 26 0 37 -118 154 -154 154 -22 0 -25 -3 -17 -17z"/>
 <path d="M10 384 c0 -21 33 -60 153 -181 171 -174 197 -196 230 -191 19 3 -5 32 -163 192 -102 103 -193 192 -202 197 -15 8 -18 5 -18 -17z"/>
 <path d="M10 184 c0 -37 137 -174 174 -174 14 0 26 3 26 6 0 10 -163 174 -182 185 -15 8 -18 5 -18 -17z"/>
 </g>
<g id="layer102" fill="#fc5723" stroke="none">
 <path d="M179 1187 l35 -37 -27 0 c-24 0 -27 -3 -27 -37 l0 -37 -47 44 -48 45 48 -50 c29 -32 47 -60 47 -75 0 -23 -3 -22 -47 20 l-48 45 48 -50 c46 -50 47 -52 47 -115 l0 -64 -48 44 -47 45 48 -50 c29 -32 47 -60 47 -75 0 -23 -3 -22 -47 20 l-48 45 48 -50 c46 -50 47 -52 47 -115 l0 -64 -47 44 -48 45 48 -50 c29 -32 47 -60 47 -75 0 -23 -3 -22 -47 20 l-48 45 48 -50 c40 -43 47 -57 47 -90 0 -22 4 -56 10 -75 l10 -34 -58 54 -57 55 61 -65 c34 -36 73 -87 88 -115 l27 -50 -88 85 c-48 47 9 -13 127 -133 118 -119 217 -217 220 -217 2 0 -27 32 -65 71 l-70 70 50 -26 c28 -14 72 -47 100 -73 l50 -47 -40 44 c-25 27 -33 41 -22 37 10 -3 44 -9 75 -12 44 -5 65 -13 92 -38 l35 -31 -29 32 -30 33 24 0 c13 0 40 -15 60 -32 l35 -33 -29 33 c-17 17 -28 32 -25 33 2 0 24 6 49 13 l45 12 50 -45 50 -46 -43 45 c-23 25 -42 49 -42 53 0 21 41 1 90 -46 l55 -52 -53 55 -52 56 47 34 c27 19 52 37 57 39 4 2 52 -39 105 -90 l96 -94 -94 96 -94 97 29 36 29 36 95 -93 95 -92 -95 97 c-74 77 -92 100 -82 110 10 10 30 -4 95 -67 l82 -80 -82 85 -81 85 21 43 21 42 61 -57 60 -58 -61 65 c-41 44 -59 71 -56 84 3 15 13 10 60 -35 l57 -54 -52 55 c-53 55 -53 56 -53 120 l0 64 53 -49 52 -50 -52 55 c-34 36 -53 64 -53 80 0 22 4 21 53 -25 l52 -50 -52 55 c-53 55 -53 56 -53 120 l0 64 53 -49 52 -50 -52 55 c-34 36 -53 64 -53 80 0 22 4 21 53 -25 l52 -50 -52 55 c-53 55 -53 56 -53 120 l0 64 53 -49 52 -50 -52 55 c-34 36 -53 64 -53 80 0 22 4 21 53 -25 l52 -50 -52 55 c-29 31 -53 63 -53 73 0 9 -8 17 -17 17 -9 0 -35 17 -58 38 l-40 37 34 -37 c27 -29 31 -38 18 -38 -16 0 -17 -24 -17 -292 0 -327 -5 -362 -63 -457 -120 -196 -394 -245 -578 -103 -70 54 -123 131 -144 213 -11 41 -15 126 -16 344 l-1 290 -46 40 -47 39 34 -37z"/>
 <path d="M240 1185 c19 -19 36 -35 39 -35 3 0 -10 16 -29 35 -19 19 -36 35 -39 35 -3 0 10 -16 29 -35z"/>
 <path d="M380 1185 c19 -19 36 -35 39 -35 3 0 -10 16 -29 35 -19 19 -36 35 -39 35 -3 0 10 -16 29 -35z"/>
 <path d="M440 1185 c19 -19 36 -35 39 -35 3 0 -10 16 -29 35 -19 19 -36 35 -39 35 -3 0 10 -16 29 -35z"/>
 <path d="M580 1185 c19 -19 36 -35 39 -35 3 0 -10 16 -29 35 -19 19 -36 35 -39 35 -3 0 10 -16 29 -35z"/>
 <path d="M640 1185 c19 -19 36 -35 39 -35 3 0 -10 16 -29 35 -19 19 -36 35 -39 35 -3 0 10 -16 29 -35z"/>
 <path d="M780 1185 c19 -19 36 -35 39 -35 3 0 -10 16 -29 35 -19 19 -36 35 -39 35 -3 0 10 -16 29 -35z"/>
 <path d="M840 1185 c19 -19 36 -35 39 -35 3 0 -10 16 -29 35 -19 19 -36 35 -39 35 -3 0 10 -16 29 -35z"/>
 <path d="M980 1185 c19 -19 36 -35 39 -35 3 0 -10 16 -29 35 -19 19 -36 35 -39 35 -3 0 10 -16 29 -35z"/>
 <path d="M1180 1185 c19 -19 36 -35 39 -35 3 0 -10 16 -29 35 -19 19 -36 35 -39 35 -3 0 10 -16 29 -35z"/>
 <path d="M509 903 c-5 -65 5 -202 17 -225 31 -60 113 -84 174 -50 56 31 69 63 71 177 l2 100 -132 3 c-72 1 -131 -1 -132 -5z"/>
 <path d="M210 215 c80 -80 147 -145 150 -145 2 0 -60 65 -140 145 -80 80 -147 145 -150 145 -2 0 60 -65 140 -145z"/>
 <path d="M180 185 c63 -63 117 -115 120 -115 2 0 -47 52 -110 115 -63 63 -117 115 -120 115 -2 0 47 -52 110 -115z"/>
 <path d="M1015 150 c44 -44 82 -80 85 -80 2 0 -31 36 -75 80 -44 44 -82 80 -85 80 -2 0 31 -36 75 -80z"/>
 <path d="M110 118 c24 -27 45 -48 47 -48 8 0 0 9 -44 50 l-48 45 45 -47z"/>
 </g>
<g id="layer103" fill="#7d8f94" stroke="none">
 <path d="M180 1185 c19 -19 36 -35 39 -35 3 0 -10 16 -29 35 -19 19 -36 35 -39 35 -3 0 10 -16 29 -35z"/>
 <path d="M240 1185 c19 -19 36 -35 39 -35 3 0 -10 16 -29 35 -19 19 -36 35 -39 35 -3 0 10 -16 29 -35z"/>
 <path d="M380 1185 c19 -19 36 -35 39 -35 3 0 -10 16 -29 35 -19 19 -36 35 -39 35 -3 0 10 -16 29 -35z"/>
 <path d="M440 1185 c19 -19 36 -35 39 -35 3 0 -10 16 -29 35 -19 19 -36 35 -39 35 -3 0 10 -16 29 -35z"/>
 <path d="M580 1185 c19 -19 36 -35 39 -35 3 0 -10 16 -29 35 -19 19 -36 35 -39 35 -3 0 10 -16 29 -35z"/>
 <path d="M640 1185 c19 -19 36 -35 39 -35 3 0 -10 16 -29 35 -19 19 -36 35 -39 35 -3 0 10 -16 29 -35z"/>
 <path d="M780 1185 c19 -19 36 -35 39 -35 3 0 -10 16 -29 35 -19 19 -36 35 -39 35 -3 0 10 -16 29 -35z"/>
 <path d="M840 1185 c19 -19 36 -35 39 -35 3 0 -10 16 -29 35 -19 19 -36 35 -39 35 -3 0 10 -16 29 -35z"/>
 <path d="M980 1185 c19 -19 36 -35 39 -35 3 0 -10 16 -29 35 -19 19 -36 35 -39 35 -3 0 10 -16 29 -35z"/>
 <path d="M1040 1185 c19 -19 36 -35 39 -35 3 0 -10 16 -29 35 -19 19 -36 35 -39 35 -3 0 10 -16 29 -35z"/>
 <path d="M1180 1185 c19 -19 36 -35 39 -35 3 0 -10 16 -29 35 -19 19 -36 35 -39 35 -3 0 10 -16 29 -35z"/>
 <path d="M110 1118 c24 -27 45 -48 47 -48 8 0 0 9 -44 50 l-48 45 45 -47z"/>
 <path d="M1165 1060 c27 -27 51 -50 54 -50 3 0 -17 23 -44 50 -27 28 -51 50 -54 50 -3 0 17 -22 44 -50z"/>
 <path d="M110 1058 c24 -27 45 -48 47 -48 8 0 0 9 -44 50 l-48 45 45 -47z"/>
 <path d="M1165 1000 c27 -27 51 -50 54 -50 3 0 -17 23 -44 50 -27 28 -51 50 -54 50 -3 0 17 -22 44 -50z"/>
 <path d="M110 918 c24 -27 45 -48 47 -48 8 0 0 9 -44 50 l-48 45 45 -47z"/>
 <path d="M509 903 c-5 -65 5 -202 17 -225 31 -60 113 -84 174 -50 56 31 69 63 71 177 l2 100 -132 3 c-72 1 -131 -1 -132 -5z"/>
 <path d="M1165 860 c27 -27 51 -50 54 -50 3 0 -17 23 -44 50 -27 28 -51 50 -54 50 -3 0 17 -22 44 -50z"/>
 <path d="M110 858 c24 -27 45 -48 47 -48 8 0 0 9 -44 50 l-48 45 45 -47z"/>
 <path d="M1165 800 c27 -27 51 -50 54 -50 3 0 -17 23 -44 50 -27 28 -51 50 -54 50 -3 0 17 -22 44 -50z"/>
 <path d="M110 718 c24 -27 45 -48 47 -48 8 0 0 9 -44 50 l-48 45 45 -47z"/>
 <path d="M1165 660 c27 -27 51 -50 54 -50 3 0 -17 23 -44 50 -27 28 -51 50 -54 50 -3 0 17 -22 44 -50z"/>
 <path d="M110 658 c24 -27 45 -48 47 -48 8 0 0 9 -44 50 l-48 45 45 -47z"/>
 <path d="M1165 600 c27 -27 51 -50 54 -50 3 0 -17 23 -44 50 -27 28 -51 50 -54 50 -3 0 17 -22 44 -50z"/>
 <path d="M120 505 c30 -30 57 -55 59 -55 3 0 -19 25 -49 55 -30 30 -57 55 -59 55 -3 0 19 -25 49 -55z"/>
 <path d="M1165 460 c27 -27 51 -50 54 -50 3 0 -17 23 -44 50 -27 28 -51 50 -54 50 -3 0 17 -22 44 -50z"/>
 <path d="M160 405 c52 -52 97 -95 100 -95 2 0 -38 43 -90 95 -52 52 -97 95 -100 95 -2 0 38 -43 90 -95z"/>
 <path d="M1155 410 c33 -33 62 -60 64 -60 3 0 -21 27 -54 60 -33 33 -62 60 -64 60 -3 0 21 -27 54 -60z"/>
 <path d="M1135 290 c44 -44 82 -80 85 -80 2 0 -31 36 -75 80 -44 44 -82 80 -85 80 -2 0 31 -36 75 -80z"/>
 <path d="M210 215 c80 -80 147 -145 150 -145 2 0 -60 65 -140 145 -80 80 -147 145 -150 145 -2 0 60 -65 140 -145z"/>
 <path d="M1125 240 c49 -50 92 -90 95 -90 2 0 -36 40 -85 90 -49 50 -92 90 -95 90 -2 0 36 -40 85 -90z"/>
 <path d="M180 185 c63 -63 117 -115 120 -115 2 0 -47 52 -110 115 -63 63 -117 115 -120 115 -2 0 47 -52 110 -115z"/>
 <path d="M1060 165 c52 -52 97 -95 100 -95 2 0 -38 43 -90 95 -52 52 -97 95 -100 95 -2 0 38 -43 90 -95z"/>
 <path d="M410 155 c47 -47 87 -85 90 -85 2 0 -33 38 -80 85 -47 47 -87 85 -90 85 -2 0 33 -38 80 -85z"/>
 <path d="M1015 150 c44 -44 82 -80 85 -80 2 0 -31 36 -75 80 -44 44 -82 80 -85 80 -2 0 31 -36 75 -80z"/>
 <path d="M900 125 c30 -30 57 -55 59 -55 3 0 -19 25 -49 55 -30 30 -57 55 -59 55 -3 0 19 -25 49 -55z"/>
 <path d="M110 118 c24 -27 45 -48 47 -48 8 0 0 9 -44 50 l-48 45 45 -47z"/>
 <path d="M510 118 c41 -45 50 -53 50 -45 0 2 -21 23 -47 47 l-48 45 45 -47z"/>
 <path d="M850 118 c24 -27 45 -48 47 -48 8 0 0 9 -44 50 l-48 45 45 -47z"/>
 <path d="M640 127 c0 -2 15 -16 33 -33 l32 -29 -29 33 c-28 30 -36 37 -36 29z"/>
 <path d="M700 127 c0 -2 15 -16 33 -33 l32 -29 -29 33 c-28 30 -36 37 -36 29z"/>
 </g>
<g id="layer104" fill="#def4f7" stroke="none">
 <path d="M510 799 l0 -101 39 -39 c34 -34 45 -39 84 -39 59 0 87 13 115 54 19 28 22 45 22 129 l0 97 -130 0 -130 0 0 -101z"/>
 </g>

</svg>